# xmcd CD database file
#
# Track frame offsets:
#	150
#	32025
#	59700
#	99777
#	124612
#	151847
#	187352
#	206515
#	238895
#	256602
#
# Disc length: 3820 seconds
#
# Revision: 0
# Processed by: cddbd v1.5.1PL2 Copyright (c) Steve Scherf et al.
# Submitted via: CDex 1.51
#
DISCID=850eea0a
DTITLE=Jacques Vidal - Traverses
DYEAR=1996
DGENRE=Jazz
TTITLE0=Traverses
TTITLE1=A.D.N.
TTITLE2=Oriental Folk Song
TTITLE3=Balkanal
TTITLE4=Recto Verso
TTITLE5=Short Cut
TTITLE6=Yesterdays
TTITLE7=Point Limite
TTITLE8=Duke Ellington's Sound Of Love
TTITLE9=Feeling Minor
EXTD=YEAR: 1996
EXTT0=
EXTT1=
EXTT2=
EXTT3=
EXTT4=
EXTT5=
EXTT6=
EXTT7=
EXTT8=
EXTT9=
PLAYORDER=
